<svg id="svg" version="1.1" xmlns="http://www.w3.org/2000/svg" xmlns:xlink="http://www.w3.org/1999/xlink" width="400" height="84.67658249740575" viewBox="0, 0, 400,84.67658249740575"><g id="svgg"><path id="path0" d="M136.333 22.564 C 135.670 22.917,134.190 23.601,132.796 24.197 C 132.088 24.499,131.204 25.029,130.831 25.374 C 130.457 25.718,130.094 26.000,130.023 26.000 C 129.952 26.000,129.730 26.188,129.531 26.417 C 129.332 26.646,129.088 26.833,128.990 26.833 C 128.712 26.833,127.663 27.652,126.809 28.533 C 126.384 28.973,125.969 29.333,125.888 29.333 C 125.807 29.333,125.624 29.465,125.480 29.625 C 125.337 29.785,124.742 30.329,124.158 30.833 C 122.175 32.547,121.500 33.330,121.500 33.918 C 121.500 34.488,121.620 34.461,123.743 33.417 C 124.768 32.912,125.697 32.500,125.807 32.500 C 125.917 32.500,126.304 32.312,126.667 32.083 C 127.030 31.854,127.386 31.667,127.458 31.667 C 127.531 31.667,128.001 31.443,128.503 31.169 C 129.006 30.895,129.529 30.627,129.667 30.573 C 129.804 30.520,130.047 30.406,130.206 30.321 C 130.365 30.236,130.612 30.167,130.754 30.167 C 130.897 30.167,131.329 30.004,131.715 29.806 C 133.023 29.133,135.231 28.778,135.596 29.181 C 135.991 29.617,135.884 33.990,135.458 34.817 C 135.298 35.129,135.166 35.504,135.166 35.651 C 135.166 35.797,134.989 36.404,134.773 37.000 C 134.220 38.528,134.159 38.686,133.899 39.275 C 133.771 39.564,133.667 39.909,133.667 40.042 C 133.667 40.175,133.479 40.636,133.250 41.067 C 133.021 41.498,132.833 42.016,132.833 42.218 C 132.833 42.916,130.976 47.167,130.671 47.167 C 130.589 47.167,130.475 47.315,130.418 47.497 C 130.360 47.678,129.698 48.473,128.947 49.262 L 127.582 50.697 126.833 50.402 C 126.420 50.240,125.625 49.821,125.065 49.470 C 124.505 49.120,123.980 48.833,123.899 48.832 C 123.817 48.832,123.344 48.457,122.847 47.999 C 122.350 47.541,121.880 47.167,121.801 47.167 C 121.723 47.167,121.574 46.979,121.470 46.750 C 121.365 46.521,121.220 46.333,121.147 46.333 C 120.870 46.333,118.507 43.851,117.963 42.987 C 117.291 41.921,116.585 39.986,116.357 38.583 C 116.268 38.033,116.113 37.372,116.014 37.114 C 115.915 36.856,115.833 36.462,115.833 36.239 C 115.833 35.617,114.849 35.967,114.828 36.596 C 114.826 36.681,114.432 37.172,113.953 37.687 C 113.475 38.203,112.596 39.170,112.000 39.836 C 110.512 41.500,108.870 43.166,108.713 43.170 C 108.642 43.172,108.358 43.442,108.083 43.770 C 107.211 44.811,105.041 47.031,104.705 47.227 C 103.951 47.668,103.063 48.307,102.852 48.561 C 102.728 48.711,102.549 48.833,102.455 48.833 C 102.361 48.833,102.014 49.112,101.684 49.453 C 101.090 50.065,101.083 50.067,101.035 49.661 C 101.008 49.435,100.920 49.100,100.839 48.917 C 100.757 48.733,100.450 47.925,100.155 47.120 C 99.860 46.315,99.554 45.617,99.476 45.568 C 99.398 45.520,99.333 45.367,99.333 45.229 C 99.333 45.091,99.146 44.732,98.917 44.431 C 98.688 44.131,98.500 43.732,98.500 43.544 C 98.500 43.357,98.352 42.876,98.170 42.477 C 97.989 42.077,97.839 41.572,97.837 41.353 C 97.835 41.135,97.646 40.437,97.417 39.802 C 96.738 37.921,96.844 32.753,97.599 30.917 C 98.125 29.637,98.254 29.447,98.874 29.037 C 99.805 28.420,101.134 28.599,104.337 29.769 C 104.936 29.988,105.481 30.167,105.549 30.167 C 105.617 30.167,105.970 30.354,106.333 30.583 C 106.696 30.813,107.107 31.000,107.247 31.000 C 107.386 31.000,107.500 31.064,107.500 31.141 C 107.500 31.219,107.794 31.415,108.153 31.577 C 108.513 31.739,108.962 32.051,109.152 32.269 C 110.398 33.702,109.810 30.500,108.506 28.750 C 107.307 27.141,106.028 26.000,105.423 26.000 C 105.282 26.000,105.167 25.934,105.167 25.854 C 105.167 25.773,104.810 25.544,104.375 25.344 C 103.940 25.144,103.396 24.875,103.167 24.746 C 102.938 24.617,102.263 24.308,101.667 24.059 C 101.071 23.811,100.446 23.491,100.279 23.350 C 99.411 22.615,95.258 23.095,94.500 24.018 C 94.454 24.074,94.136 24.220,93.793 24.343 C 93.043 24.611,92.339 25.445,91.825 26.675 C 91.616 27.175,91.383 27.655,91.306 27.742 C 91.229 27.829,91.167 28.108,91.167 28.363 C 91.167 28.617,90.990 29.296,90.775 29.871 C 90.119 31.624,89.888 34.304,90.217 36.366 C 90.367 37.311,90.533 38.646,90.586 39.333 C 90.638 40.021,90.785 40.958,90.911 41.417 C 91.038 41.875,91.194 42.775,91.259 43.417 C 91.324 44.058,91.449 44.771,91.536 45.000 C 91.623 45.229,91.829 46.017,91.994 46.750 C 92.558 49.257,93.027 50.917,93.242 51.167 C 93.360 51.304,93.772 52.054,94.156 52.833 C 95.028 54.602,95.364 55.198,95.609 55.414 C 95.714 55.507,95.994 56.001,96.231 56.511 C 97.195 58.588,99.970 60.823,101.583 60.823 C 102.865 60.823,103.191 60.546,104.348 58.477 C 104.828 57.619,105.358 56.718,105.527 56.474 C 105.695 56.231,105.833 55.947,105.833 55.842 C 105.833 55.738,106.152 55.233,106.542 54.719 C 106.931 54.206,107.397 53.591,107.577 53.352 C 107.757 53.112,108.001 52.857,108.119 52.783 C 108.237 52.710,108.333 52.566,108.333 52.463 C 108.333 52.360,108.444 52.153,108.580 52.003 C 108.875 51.677,109.537 50.524,109.993 49.542 C 110.174 49.152,110.385 48.833,110.462 48.833 C 110.539 48.833,110.727 48.552,110.878 48.208 C 111.185 47.513,111.465 47.122,112.359 46.137 C 112.694 45.768,113.094 45.136,113.248 44.733 C 113.511 44.044,114.000 43.719,114.000 44.233 C 114.000 44.362,114.187 44.868,114.415 45.358 C 114.643 45.849,114.831 46.420,114.832 46.628 C 114.833 46.836,115.021 47.304,115.250 47.667 C 115.479 48.030,115.667 48.408,115.667 48.508 C 115.667 48.607,115.854 48.935,116.083 49.235 C 116.313 49.536,116.500 49.876,116.500 49.992 C 116.500 50.236,116.865 50.651,118.235 51.969 C 119.341 53.033,119.188 52.879,121.936 55.691 C 123.997 57.799,125.049 58.667,125.547 58.667 C 125.700 58.667,125.949 58.854,126.099 59.083 C 126.392 59.532,129.068 59.728,129.549 59.336 C 130.608 58.472,131.702 57.833,132.123 57.833 C 132.208 57.833,132.474 57.627,132.713 57.375 C 132.953 57.123,133.347 56.767,133.590 56.583 C 133.832 56.400,134.118 56.151,134.224 56.030 C 134.330 55.909,134.792 55.412,135.250 54.926 C 135.708 54.440,136.233 53.832,136.417 53.575 C 136.600 53.319,136.867 52.990,137.010 52.846 C 137.505 52.347,138.500 51.048,138.501 50.900 C 138.502 50.817,138.859 50.323,139.293 49.802 C 139.728 49.280,140.221 48.657,140.390 48.418 C 140.893 47.702,142.500 44.439,142.500 44.132 C 142.500 43.976,142.681 43.189,142.902 42.382 C 143.678 39.556,144.096 29.024,143.500 27.333 C 143.197 26.473,142.316 24.656,142.055 24.349 C 141.930 24.203,141.596 23.802,141.313 23.458 C 141.030 23.115,140.675 22.832,140.524 22.831 C 140.373 22.829,139.950 22.720,139.583 22.588 C 138.743 22.285,136.882 22.272,136.333 22.564 M384.483 38.389 C 384.244 38.496,383.944 38.664,383.816 38.762 C 383.522 38.988,380.924 40.000,380.633 40.001 C 380.514 40.002,380.198 40.116,379.930 40.256 C 378.684 40.906,374.520 41.169,372.076 40.753 C 369.998 40.399,366.741 39.345,365.629 38.667 C 364.909 38.228,364.667 38.247,364.667 38.742 C 364.667 39.420,365.143 41.029,365.453 41.401 C 366.273 42.384,366.971 43.035,367.458 43.273 C 367.756 43.419,368.000 43.604,368.000 43.686 C 368.000 43.767,368.082 43.833,368.183 43.833 C 368.368 43.833,369.317 44.219,369.898 44.530 C 370.071 44.623,370.634 44.767,371.148 44.850 C 371.663 44.933,372.458 45.072,372.917 45.157 C 374.005 45.361,376.053 45.361,377.000 45.157 C 377.412 45.069,378.162 44.927,378.667 44.844 C 382.280 44.243,385.333 41.424,385.333 38.689 C 385.333 38.125,385.186 38.073,384.483 38.389 M392.083 50.620 C 391.625 50.653,389.150 50.733,386.583 50.798 L 381.917 50.917 381.870 52.941 L 381.823 54.966 383.870 55.063 C 384.996 55.116,388.366 55.205,391.361 55.261 C 397.979 55.384,397.500 55.561,397.500 52.992 C 397.500 50.406,397.171 50.262,392.083 50.620 M390.417 56.008 C 389.042 56.072,386.548 56.133,384.875 56.145 L 381.833 56.167 381.833 58.143 L 381.833 60.120 382.708 60.230 C 384.693 60.478,396.655 60.563,397.086 60.332 C 397.487 60.117,397.500 60.056,397.497 58.347 C 397.493 55.589,397.738 55.669,390.417 56.008 " stroke="none" fill="#ec0404" fill-rule="evenodd"></path><path id="path1" d="M159.399 2.421 C 158.804 2.682,157.167 4.292,157.167 4.616 C 157.167 4.736,157.101 4.833,157.020 4.833 C 156.940 4.833,156.782 5.077,156.669 5.375 C 156.557 5.673,156.311 6.292,156.123 6.750 C 155.934 7.208,155.727 7.846,155.662 8.167 C 155.597 8.487,155.388 9.313,155.197 10.000 C 152.802 18.639,150.154 36.632,149.814 46.583 C 149.422 58.051,150.275 61.000,153.986 61.000 C 155.254 61.000,155.936 60.861,156.379 60.511 C 159.001 58.444,159.181 57.617,158.410 51.167 C 157.967 47.456,157.989 41.821,158.465 37.250 C 159.334 28.915,160.264 24.124,162.585 16.042 C 162.816 15.240,163.003 14.476,163.002 14.345 C 163.001 14.214,163.146 13.614,163.325 13.012 C 165.204 6.682,164.937 3.153,162.517 2.354 C 161.757 2.103,160.040 2.140,159.399 2.421 M249.104 3.954 C 247.039 5.037,245.603 8.536,245.253 13.333 C 245.196 14.112,244.966 16.212,244.742 18.000 C 244.518 19.787,244.180 22.525,243.990 24.083 C 243.575 27.483,242.972 31.678,242.408 35.083 C 242.180 36.458,241.995 37.749,241.997 37.951 C 241.999 38.153,241.813 39.353,241.584 40.617 C 241.355 41.882,240.974 44.004,240.736 45.333 C 240.499 46.663,240.128 48.688,239.912 49.833 C 238.851 55.466,238.785 56.448,239.385 57.646 C 240.055 58.986,241.394 59.655,243.417 59.662 C 245.205 59.669,245.842 59.106,247.182 56.333 C 248.452 53.708,248.775 53.087,249.472 51.941 C 249.854 51.313,250.167 50.770,250.167 50.735 C 250.167 50.699,250.504 50.177,250.917 49.574 C 251.329 48.972,251.667 48.455,251.667 48.425 C 251.667 48.396,251.985 47.905,252.375 47.336 C 252.765 46.767,253.196 46.133,253.333 45.927 C 253.597 45.532,254.249 44.601,254.874 43.723 C 255.081 43.434,255.580 42.721,255.984 42.140 C 256.387 41.559,256.897 40.858,257.116 40.583 C 257.335 40.308,257.625 39.933,257.760 39.750 C 263.603 31.813,265.661 32.432,266.348 42.333 C 266.501 44.547,266.760 46.585,267.163 48.750 C 267.361 49.818,268.003 51.612,268.470 52.403 C 268.670 52.742,268.833 53.073,268.833 53.140 C 268.833 53.467,271.068 55.952,271.583 56.198 C 271.767 56.285,272.179 56.501,272.500 56.678 C 273.520 57.240,275.897 57.141,276.872 56.495 C 279.060 55.046,279.204 53.628,277.436 50.964 C 275.396 47.892,273.890 43.103,273.595 38.750 C 273.212 33.082,271.947 28.285,270.444 26.797 C 266.976 23.364,260.597 25.098,255.899 30.750 C 254.344 32.621,252.407 35.452,250.975 37.948 C 250.774 38.297,250.454 38.855,250.263 39.186 C 250.073 39.518,249.662 40.251,249.350 40.814 C 248.626 42.125,248.588 42.054,248.999 40.150 C 249.184 39.288,249.530 37.683,249.767 36.583 C 250.004 35.483,250.332 34.021,250.497 33.333 C 250.661 32.646,250.997 31.183,251.244 30.083 C 251.491 28.983,251.869 27.296,252.085 26.333 C 252.491 24.521,253.019 22.031,253.729 18.583 C 254.887 12.952,255.111 7.807,254.271 6.122 C 253.269 4.112,250.787 3.071,249.104 3.954 M333.983 4.812 C 331.059 5.431,329.315 9.088,330.620 11.863 C 332.198 15.221,335.529 16.128,338.417 13.987 C 344.063 9.800,340.941 3.340,333.983 4.812 M371.417 5.177 C 371.142 5.263,370.217 5.446,369.362 5.585 C 368.507 5.724,367.499 5.987,367.122 6.169 C 366.746 6.351,366.344 6.500,366.230 6.500 C 366.007 6.500,364.081 7.263,363.667 7.515 C 363.529 7.599,363.032 7.853,362.561 8.080 C 362.090 8.307,361.662 8.606,361.608 8.746 C 361.554 8.886,361.396 9.000,361.256 9.000 C 360.720 9.000,357.602 12.053,357.083 13.086 C 356.900 13.451,356.694 13.775,356.625 13.806 C 356.556 13.836,356.500 13.996,356.500 14.160 C 356.500 14.325,356.387 14.553,356.250 14.667 C 356.113 14.781,356.000 15.081,356.000 15.333 C 356.000 15.586,355.887 16.062,355.750 16.391 C 355.432 17.152,355.432 18.449,355.750 20.110 C 355.887 20.829,356.000 21.837,356.000 22.350 C 356.000 22.863,356.152 23.988,356.337 24.850 C 356.522 25.712,356.718 26.642,356.772 26.917 C 356.918 27.656,358.307 30.423,358.865 31.083 C 359.019 31.267,359.489 31.844,359.908 32.366 C 360.328 32.889,361.176 33.738,361.794 34.254 C 362.411 34.770,363.067 35.318,363.250 35.471 C 363.635 35.793,363.822 35.912,364.935 36.550 C 366.844 37.642,367.153 37.789,368.746 38.374 C 371.150 39.254,374.031 39.618,376.431 39.344 C 379.296 39.016,379.545 38.969,380.117 38.648 C 380.425 38.475,380.787 38.333,380.923 38.333 C 381.058 38.333,381.557 38.146,382.032 37.917 C 382.507 37.688,382.985 37.500,383.094 37.500 C 383.203 37.500,383.389 37.384,383.507 37.242 C 383.625 37.100,384.034 36.841,384.417 36.667 C 384.799 36.492,385.209 36.234,385.326 36.092 C 385.444 35.950,385.640 35.833,385.762 35.833 C 385.884 35.833,386.043 35.739,386.117 35.624 C 386.190 35.509,386.550 35.191,386.917 34.918 C 388.101 34.036,391.000 30.934,391.000 30.549 C 391.000 30.453,391.106 30.286,391.236 30.179 C 391.365 30.071,391.628 29.668,391.820 29.283 C 392.012 28.898,392.240 28.471,392.328 28.333 C 392.697 27.755,393.378 25.850,393.519 25.000 C 394.515 19.014,394.555 15.750,393.645 14.758 C 393.565 14.671,393.500 14.428,393.500 14.217 C 393.500 14.006,393.432 13.833,393.348 13.833 C 393.265 13.833,393.032 13.495,392.832 13.081 C 392.632 12.666,392.325 12.251,392.150 12.158 C 391.976 12.065,391.833 11.914,391.833 11.824 C 391.833 11.644,390.017 9.833,389.836 9.833 C 389.775 9.833,389.549 9.646,389.333 9.417 C 389.118 9.187,388.866 9.000,388.773 9.000 C 388.681 9.000,388.450 8.860,388.261 8.690 C 387.728 8.210,384.762 6.758,383.750 6.483 C 383.475 6.408,382.800 6.199,382.250 6.019 C 379.657 5.172,373.080 4.661,371.417 5.177 M25.417 9.418 C 24.408 9.535,22.845 9.714,21.943 9.815 C 21.041 9.917,19.716 10.151,18.999 10.334 C 18.281 10.517,17.532 10.667,17.333 10.667 C 16.728 10.667,12.117 11.969,10.750 12.525 C 10.292 12.712,9.690 12.921,9.414 12.990 C 8.707 13.165,5.433 14.799,5.022 15.182 C 4.834 15.357,4.619 15.500,4.544 15.500 C 4.301 15.500,3.431 16.564,3.045 17.333 C 2.036 19.348,3.901 22.016,6.111 21.720 C 7.658 21.512,7.660 21.017,6.070 33.250 C 4.985 41.603,4.030 47.242,2.887 52.044 C 1.910 56.154,2.938 59.518,5.373 60.179 C 7.569 60.775,10.033 60.023,10.871 58.500 C 11.446 57.453,12.165 52.222,12.166 49.083 C 12.166 48.145,12.433 46.008,13.430 39.000 C 14.748 29.731,15.333 25.894,15.922 22.657 C 16.148 21.414,16.333 20.226,16.333 20.016 C 16.333 18.190,21.200 16.505,27.333 16.208 C 32.959 15.936,34.615 16.687,34.461 19.440 C 34.313 22.070,29.727 27.218,25.548 29.444 C 24.607 29.945,24.185 30.158,23.331 30.564 C 22.825 30.804,22.361 31.000,22.299 31.000 C 21.667 31.000,17.694 33.220,16.792 34.078 C 16.011 34.820,16.164 37.188,17.053 38.140 C 18.106 39.267,21.842 39.400,24.282 38.396 C 27.034 37.265,27.337 37.167,28.077 37.167 C 33.676 37.167,36.583 42.485,33.405 46.917 C 32.434 48.271,30.224 50.500,29.852 50.500 C 29.782 50.500,29.549 50.688,29.333 50.917 C 29.118 51.146,28.891 51.333,28.829 51.333 C 28.767 51.333,28.199 51.674,27.566 52.091 C 25.096 53.720,23.673 54.134,19.866 54.329 C 15.889 54.533,14.531 55.159,13.564 57.237 C 12.706 59.079,13.173 61.153,14.596 61.822 C 18.290 63.558,26.244 62.019,31.667 58.519 C 32.171 58.193,32.705 57.850,32.853 57.755 C 34.142 56.934,36.646 54.866,38.050 53.464 C 39.371 52.143,41.500 49.533,41.500 49.233 C 41.500 49.165,41.608 48.990,41.741 48.843 C 42.134 48.409,43.028 46.166,43.273 45.000 C 43.879 42.110,43.385 39.568,41.586 36.333 C 41.312 35.840,39.606 34.167,39.377 34.167 C 39.290 34.167,39.090 34.025,38.933 33.851 C 38.584 33.466,35.456 31.914,34.710 31.755 C 34.082 31.622,33.906 31.423,34.205 31.184 C 38.659 27.636,42.333 24.045,42.333 23.242 C 42.333 23.184,42.476 22.954,42.651 22.732 C 43.643 21.470,43.997 18.297,43.359 16.375 C 41.450 10.619,35.378 8.265,25.417 9.418 M379.600 10.331 C 380.852 10.605,381.961 10.894,382.063 10.975 C 382.166 11.055,382.680 11.254,383.206 11.416 C 383.732 11.578,384.248 11.814,384.352 11.939 C 384.456 12.064,384.639 12.167,384.759 12.167 C 385.346 12.167,388.667 14.799,388.667 15.265 C 388.667 15.394,388.746 15.500,388.843 15.500 C 389.058 15.500,389.769 17.072,389.922 17.886 C 390.053 18.585,389.495 20.583,388.989 21.227 C 388.812 21.452,388.667 21.684,388.667 21.742 C 388.667 21.929,386.757 23.664,386.550 23.666 C 386.440 23.666,386.290 23.767,386.217 23.889 C 386.143 24.012,385.596 24.356,385.000 24.654 C 383.380 25.466,383.003 25.626,382.000 25.929 C 381.496 26.082,380.749 26.315,380.339 26.447 C 378.274 27.113,371.592 27.105,369.499 26.434 C 369.087 26.302,368.300 26.060,367.750 25.897 C 367.200 25.733,366.651 25.502,366.530 25.383 C 366.409 25.264,366.195 25.167,366.056 25.167 C 365.589 25.167,363.101 23.670,362.583 23.078 C 362.492 22.974,362.248 22.798,362.042 22.688 C 361.835 22.578,361.667 22.413,361.667 22.321 C 361.667 22.228,361.514 21.989,361.328 21.789 C 359.607 19.941,359.591 17.099,361.292 15.177 C 361.498 14.944,361.667 14.705,361.667 14.647 C 361.667 14.205,366.288 11.333,366.998 11.333 C 367.100 11.333,367.423 11.205,367.717 11.049 C 369.982 9.841,375.761 9.492,379.600 10.331 M231.250 10.755 C 231.067 10.786,229.679 10.933,228.167 11.080 C 226.654 11.227,224.104 11.530,222.500 11.754 C 214.091 12.926,212.789 13.033,203.333 13.325 C 193.745 13.621,192.746 13.882,192.152 16.241 C 191.593 18.460,192.662 20.003,195.118 20.519 C 197.286 20.975,197.081 20.982,209.350 20.073 C 213.420 19.771,213.033 19.676,212.835 20.926 C 212.125 25.422,210.836 36.849,210.327 43.167 C 209.954 47.787,210.203 54.126,210.837 56.178 C 211.827 59.378,215.944 60.829,217.898 58.665 C 219.291 57.124,219.474 55.522,218.755 51.167 C 218.187 47.724,218.683 39.949,220.428 24.917 C 221.110 19.044,221.151 18.926,222.583 18.681 C 223.042 18.603,224.167 18.404,225.083 18.239 C 226.985 17.896,235.668 17.793,239.522 18.066 C 242.425 18.272,243.083 17.972,243.653 16.183 C 244.355 13.978,243.003 11.752,240.583 11.129 C 239.341 10.809,232.516 10.536,231.250 10.755 M302.400 21.909 C 297.178 22.948,289.714 29.590,285.908 36.583 C 285.808 36.767,285.476 37.367,285.170 37.917 C 284.157 39.738,282.667 43.047,282.667 43.477 C 282.667 43.578,282.490 44.282,282.273 45.039 C 281.091 49.183,281.664 55.498,283.279 56.118 C 283.401 56.164,283.500 56.290,283.500 56.397 C 283.500 56.505,283.744 56.808,284.042 57.072 C 289.031 61.486,297.847 58.022,304.795 48.917 C 304.865 48.825,305.071 48.558,305.253 48.323 L 305.583 47.896 305.617 50.069 C 305.697 55.357,307.134 58.850,309.583 59.709 C 314.268 61.353,319.475 56.221,315.352 54.023 C 314.371 53.501,313.667 52.828,313.667 52.415 C 313.667 52.302,313.504 51.843,313.306 51.396 C 312.002 48.458,312.282 41.832,314.108 32.379 C 315.049 27.507,314.285 25.667,311.324 25.667 C 310.781 25.667,310.683 25.602,310.503 25.125 C 309.561 22.620,307.999 21.648,304.974 21.687 C 304.118 21.697,302.959 21.797,302.400 21.909 M66.262 22.691 C 62.939 23.409,58.875 26.155,56.632 29.197 C 56.476 29.410,56.158 29.818,55.926 30.105 C 54.962 31.297,52.636 35.275,52.090 36.667 C 49.628 42.930,49.072 47.504,50.264 51.667 C 50.571 52.738,51.817 55.333,52.024 55.333 C 52.103 55.333,52.167 55.427,52.168 55.542 C 52.170 55.801,54.068 57.833,54.308 57.833 C 54.404 57.833,54.543 57.938,54.617 58.065 C 54.833 58.441,56.330 59.247,57.584 59.664 C 60.647 60.680,65.783 60.011,68.705 58.215 C 69.047 58.005,69.377 57.833,69.438 57.833 C 70.519 57.833,78.167 50.850,78.167 49.862 C 78.167 49.770,78.230 49.669,78.308 49.639 C 78.620 49.517,80.310 46.591,80.925 45.110 C 83.733 38.347,83.161 31.473,79.405 26.831 C 78.513 25.729,77.249 24.500,77.007 24.500 C 76.934 24.500,76.776 24.382,76.657 24.238 C 75.392 22.714,69.921 21.900,66.262 22.691 M328.375 24.176 C 327.894 24.461,327.500 24.789,327.500 24.905 C 327.500 25.020,327.355 25.247,327.177 25.407 C 326.674 25.862,326.182 27.706,325.999 29.821 C 325.820 31.892,325.380 34.547,323.912 42.417 C 323.758 43.242,323.571 44.517,323.497 45.250 C 323.423 45.983,323.236 47.671,323.081 49.000 C 322.567 53.411,322.953 57.460,324.003 58.670 C 324.175 58.869,324.339 59.090,324.366 59.162 C 324.768 60.205,328.175 60.579,329.545 59.729 C 331.798 58.332,332.307 57.217,331.743 54.917 C 331.186 52.648,331.304 44.199,331.930 41.417 C 332.075 40.775,332.251 39.875,332.322 39.417 C 332.507 38.214,333.387 34.825,334.333 31.667 C 335.117 29.050,335.338 26.948,334.930 25.979 C 334.088 23.977,330.415 22.966,328.375 24.176 M304.770 29.179 C 306.389 30.180,306.498 33.907,305.004 37.219 C 304.831 37.603,304.646 38.029,304.594 38.167 C 304.541 38.304,304.275 38.792,304.003 39.250 C 303.730 39.708,303.352 40.346,303.163 40.667 C 302.975 40.987,302.654 41.475,302.450 41.750 C 302.247 42.025,301.750 42.700,301.345 43.250 C 299.701 45.485,296.694 48.605,295.044 49.787 C 292.887 51.331,290.624 51.855,290.193 50.909 C 289.819 50.087,289.950 46.958,290.417 45.568 C 290.646 44.885,290.833 44.254,290.833 44.166 C 290.833 43.975,292.622 40.232,292.943 39.750 C 293.065 39.567,293.814 38.442,294.606 37.250 C 295.399 36.058,296.150 35.023,296.274 34.950 C 296.398 34.877,296.500 34.712,296.500 34.583 C 296.500 34.455,296.598 34.290,296.718 34.217 C 296.839 34.143,297.064 33.896,297.220 33.667 C 299.391 30.474,303.201 28.209,304.770 29.179 M71.069 29.903 C 74.831 31.624,75.651 38.862,72.714 44.417 C 69.674 50.167,62.723 54.590,60.138 52.419 C 57.375 50.098,57.527 43.522,60.482 37.509 C 61.244 35.959,61.423 35.641,62.314 34.250 C 64.817 30.342,68.275 28.625,71.069 29.903 M373.417 51.175 C 372.042 51.238,368.254 51.305,365.000 51.323 C 352.639 51.392,351.641 51.573,352.590 53.575 C 352.962 54.358,352.319 54.310,366.119 54.584 C 372.974 54.719,379.015 54.878,379.542 54.937 L 380.500 55.043 380.500 53.022 L 380.500 51.000 378.208 51.030 C 376.948 51.046,374.792 51.111,373.417 51.175 M367.250 56.593 C 364.408 56.709,360.350 56.810,358.232 56.818 C 352.734 56.840,352.039 57.045,352.422 58.535 C 352.699 59.614,352.482 59.572,358.465 59.697 C 361.464 59.760,365.717 59.891,367.917 59.988 C 370.117 60.086,373.848 60.166,376.208 60.166 L 380.500 60.167 380.500 58.250 L 380.500 56.333 376.458 56.358 C 374.235 56.372,370.092 56.478,367.250 56.593 M137.037 68.426 C 136.543 68.772,136.522 69.855,137.000 70.333 C 137.873 71.206,139.500 70.572,139.500 69.359 C 139.500 68.259,138.056 67.712,137.037 68.426 M199.208 68.339 C 198.661 68.558,198.658 70.025,199.204 70.407 C 200.234 71.129,201.667 70.479,201.667 69.290 C 201.667 68.315,200.445 67.842,199.208 68.339 M215.870 68.426 C 214.916 69.094,215.629 70.667,216.886 70.667 C 217.958 70.667,218.333 70.320,218.333 69.330 C 218.333 68.198,216.931 67.683,215.870 68.426 M117.039 70.034 C 116.253 71.645,115.667 72.991,115.667 73.182 C 115.667 73.277,115.479 73.765,115.250 74.266 C 115.021 74.767,114.833 75.250,114.833 75.340 C 114.833 75.430,114.687 75.822,114.508 76.210 C 114.329 76.599,114.072 77.217,113.938 77.583 C 112.941 80.313,112.890 80.411,112.274 80.750 C 111.770 81.027,111.667 81.175,111.667 81.625 L 111.667 82.167 113.750 82.167 L 115.833 82.167 115.833 81.658 C 115.833 81.228,115.737 81.110,115.208 80.891 C 114.422 80.565,114.459 80.614,114.646 80.147 C 114.733 79.928,114.969 79.319,115.171 78.792 L 115.539 77.833 117.826 77.833 L 120.113 77.833 120.307 78.258 C 120.413 78.491,120.503 78.773,120.506 78.883 C 120.509 78.993,120.656 79.383,120.833 79.750 C 121.254 80.621,121.268 80.570,120.500 80.917 C 119.949 81.165,119.833 81.299,119.833 81.692 L 119.833 82.167 122.333 82.167 L 124.833 82.167 124.833 81.658 C 124.833 81.236,124.736 81.109,124.256 80.908 C 123.613 80.640,123.453 80.399,122.874 78.833 C 122.127 76.812,121.981 76.441,121.657 75.729 C 121.479 75.338,121.333 74.941,121.333 74.846 C 121.333 74.752,121.153 74.279,120.933 73.795 C 120.713 73.312,120.197 72.054,119.788 71.000 L 119.044 69.083 118.298 69.034 L 117.551 68.984 117.039 70.034 M176.819 69.143 C 171.962 70.188,170.648 78.885,174.968 81.396 C 175.145 81.499,175.543 81.732,175.853 81.913 C 178.105 83.231,183.667 81.686,183.667 79.742 C 183.667 78.851,183.089 78.701,182.342 79.397 C 180.934 80.712,178.843 81.054,177.205 80.238 C 174.042 78.661,173.870 72.300,176.952 70.828 C 178.636 70.024,181.664 70.437,181.669 71.472 C 181.674 72.893,181.826 73.167,182.605 73.167 L 183.333 73.167 183.333 71.353 L 183.333 69.540 182.542 69.339 C 181.590 69.097,177.658 68.963,176.819 69.143 M118.577 73.833 C 118.788 74.337,119.081 75.034,119.230 75.381 C 119.378 75.728,119.500 76.046,119.500 76.089 C 119.500 76.132,118.750 76.167,117.833 76.167 C 116.917 76.167,116.167 76.148,116.167 76.124 C 116.167 76.101,116.363 75.557,116.603 74.916 C 116.844 74.275,117.147 73.457,117.278 73.099 C 117.756 71.792,117.877 71.671,118.046 72.333 C 118.128 72.654,118.367 73.329,118.577 73.833 M128.283 72.351 C 126.771 72.949,126.249 73.656,126.257 75.095 C 126.267 76.873,127.070 77.571,129.803 78.176 C 130.864 78.412,131.833 79.066,131.833 79.549 C 131.833 81.169,128.347 81.541,127.725 79.987 C 127.477 79.366,127.428 79.333,126.732 79.333 L 126.000 79.333 126.000 80.570 L 126.000 81.807 126.625 82.024 C 128.027 82.511,131.311 82.322,132.282 81.700 C 134.529 80.258,134.371 77.456,132.000 76.699 C 128.668 75.635,128.178 75.353,128.177 74.500 C 128.176 73.124,131.044 72.951,131.667 74.289 C 131.890 74.769,131.991 74.826,132.625 74.830 L 133.333 74.833 133.333 73.597 L 133.333 72.361 132.492 72.180 C 131.198 71.903,129.212 71.983,128.283 72.351 M145.167 72.192 C 144.846 72.281,144.302 72.427,143.958 72.517 L 143.333 72.680 143.333 73.756 C 143.333 74.883,143.771 75.261,144.315 74.605 C 144.581 74.285,146.556 73.333,146.954 73.333 C 148.082 73.333,148.833 74.159,148.833 75.400 L 148.833 76.000 147.458 76.011 C 143.892 76.040,141.714 78.129,142.725 80.550 C 143.454 82.293,146.168 82.816,148.095 81.583 C 149.154 80.906,149.167 80.902,149.167 81.308 C 149.167 82.190,151.145 82.516,152.272 81.820 C 153.241 81.221,153.090 80.485,152.023 80.612 C 150.920 80.742,150.930 80.773,150.833 76.888 C 150.739 73.092,150.702 72.985,149.250 72.315 C 148.506 71.972,146.210 71.902,145.167 72.192 M154.833 72.229 C 153.374 72.482,153.209 73.044,154.408 73.680 L 155.167 74.083 155.167 77.352 L 155.167 80.621 154.417 80.908 C 153.765 81.157,153.667 81.258,153.667 81.680 L 153.667 82.167 156.000 82.167 L 158.333 82.167 158.333 81.664 C 158.333 81.254,158.226 81.110,157.750 80.883 L 157.167 80.605 157.167 77.578 C 157.167 74.139,157.153 74.175,158.539 73.827 C 160.877 73.239,161.333 73.859,161.333 77.621 L 161.333 80.591 160.750 80.905 C 160.294 81.151,160.167 81.322,160.167 81.693 L 160.167 82.167 162.500 82.167 L 164.833 82.167 164.833 81.685 C 164.833 81.278,164.729 81.161,164.167 80.936 L 163.500 80.669 163.500 77.496 C 163.500 74.423,163.486 74.296,163.074 73.482 C 162.191 71.740,159.225 71.426,157.542 72.897 L 157.167 73.225 157.167 72.612 C 157.167 71.905,156.925 71.866,154.833 72.229 M186.125 72.209 C 184.699 72.416,184.484 73.063,185.645 73.655 L 186.289 73.984 186.365 77.117 C 186.446 80.459,186.497 80.683,187.368 81.583 C 187.835 82.065,187.914 82.085,189.553 82.139 L 191.255 82.195 192.044 81.500 L 192.833 80.805 192.833 81.486 L 192.833 82.167 193.625 82.165 C 195.666 82.161,196.167 82.008,196.167 81.388 C 196.167 80.997,196.077 80.794,195.875 80.729 C 195.715 80.678,195.377 80.558,195.125 80.464 L 194.667 80.293 194.667 76.146 L 194.667 72.000 194.300 72.000 C 191.560 72.000,190.272 72.870,191.833 73.667 L 192.500 74.007 192.500 76.894 C 192.500 79.438,192.465 79.811,192.208 80.030 C 191.293 80.809,189.764 80.839,189.016 80.092 L 188.583 79.660 188.533 75.830 L 188.483 72.000 187.866 72.023 C 187.527 72.035,186.744 72.119,186.125 72.209 M207.159 72.335 C 205.412 73.028,204.660 74.435,205.190 76.017 C 205.552 77.097,206.401 77.596,209.102 78.317 C 211.875 79.057,210.564 81.508,207.755 80.835 C 206.961 80.644,206.831 80.550,206.573 79.977 C 206.301 79.373,206.238 79.333,205.558 79.333 L 204.833 79.333 204.833 80.570 L 204.833 81.807 205.458 82.024 C 206.468 82.375,210.115 82.324,210.800 81.950 C 213.398 80.532,213.389 77.451,210.786 76.673 C 207.943 75.823,207.000 75.292,207.000 74.539 C 207.000 73.162,210.042 72.921,210.527 74.261 C 210.719 74.792,210.785 74.833,211.450 74.833 L 212.167 74.833 212.167 73.603 L 212.167 72.373 211.426 72.186 C 210.300 71.903,208.051 71.981,207.159 72.335 M222.333 72.229 C 220.874 72.482,220.709 73.044,221.908 73.680 L 222.667 74.083 222.667 77.361 L 222.667 80.639 221.917 80.926 C 221.269 81.173,221.167 81.277,221.167 81.689 L 221.167 82.167 223.500 82.167 L 225.833 82.167 225.833 81.671 C 225.833 81.289,225.719 81.116,225.333 80.917 L 224.833 80.658 224.833 77.516 C 224.833 73.981,224.784 74.121,226.133 73.809 C 228.415 73.283,228.898 73.953,228.972 77.746 L 229.026 80.591 228.347 80.891 C 227.774 81.143,227.667 81.268,227.667 81.679 L 227.667 82.167 230.000 82.167 L 232.333 82.167 232.333 81.692 C 232.333 81.299,232.218 81.165,231.667 80.917 L 231.000 80.616 230.993 77.433 C 230.985 73.632,230.809 73.032,229.506 72.375 C 228.108 71.670,225.631 72.030,224.922 73.042 C 224.675 73.395,224.667 73.384,224.667 72.704 L 224.667 72.000 224.042 72.020 C 223.698 72.032,222.929 72.125,222.333 72.229 M236.865 72.310 C 232.927 73.909,232.757 80.090,236.602 81.914 C 238.589 82.857,242.859 81.713,242.968 80.208 C 243.033 79.310,242.832 79.296,241.272 80.086 C 238.857 81.310,236.393 80.255,236.115 77.878 L 236.033 77.173 239.475 77.128 L 242.917 77.083 242.967 76.216 C 243.148 73.083,239.971 71.049,236.865 72.310 M136.625 72.385 C 134.904 72.607,134.716 73.246,136.208 73.803 L 137.083 74.129 137.128 77.388 L 137.174 80.647 136.253 80.937 C 135.424 81.199,135.333 81.274,135.333 81.697 L 135.333 82.167 138.167 82.167 L 141.000 82.167 141.000 81.676 C 141.000 81.234,140.923 81.164,140.208 80.963 L 139.417 80.739 139.372 76.453 L 139.328 72.167 138.622 72.192 C 138.234 72.207,137.335 72.293,136.625 72.385 M198.792 72.385 C 197.071 72.607,196.883 73.246,198.375 73.803 L 199.250 74.129 199.295 77.388 L 199.340 80.647 198.420 80.937 C 197.591 81.199,197.500 81.274,197.500 81.697 L 197.500 82.167 200.333 82.167 L 203.167 82.167 203.167 81.678 C 203.167 81.230,203.092 81.169,202.250 80.924 L 201.333 80.657 201.333 76.412 L 201.333 72.167 200.708 72.192 C 200.365 72.207,199.502 72.293,198.792 72.385 M215.533 72.382 L 214.316 72.548 214.366 73.045 C 214.409 73.463,214.537 73.589,215.167 73.834 L 215.917 74.126 215.962 77.382 L 216.007 80.638 215.170 80.916 C 214.420 81.165,214.333 81.244,214.333 81.680 L 214.333 82.167 217.167 82.167 L 220.000 82.167 220.000 81.688 C 220.000 81.253,219.921 81.187,219.125 80.966 L 218.250 80.723 218.206 76.445 L 218.161 72.167 217.456 72.191 C 217.067 72.204,216.202 72.290,215.533 72.382 M239.797 73.593 C 240.228 73.895,240.578 74.522,240.743 75.292 L 240.860 75.833 238.513 75.833 C 236.191 75.833,236.167 75.829,236.167 75.458 C 236.170 73.972,238.574 72.737,239.797 73.593 M148.833 78.546 L 148.833 79.759 148.133 80.213 C 146.575 81.223,144.917 80.684,144.917 79.167 C 144.917 77.884,145.716 77.378,147.792 77.348 L 148.833 77.333 148.833 78.546 " stroke="none" fill="#040404" fill-rule="evenodd"></path></g></svg>